<?xml version="1.0" encoding="utf-8"?>
<!-- Generator: Adobe Illustrator 25.4.1, SVG Export Plug-In . SVG Version: 6.00 Build 0)  -->
<svg version="1.1" xmlns="http://www.w3.org/2000/svg" xmlns:xlink="http://www.w3.org/1999/xlink" x="0px" y="0px"
	 viewBox="0 0 500 500" style="enable-background:new 0 0 500 500;" xml:space="preserve">
<style type="text/css">
	.st0{fill:#EE5A24;}
	.st1{font-family:'Chalk-Regular';}
	.st2{font-size:48px;}
	.st3{font-family:'ArialRoundedMTBold';}
	.st4{font-size:18px;}
	.st5{fill:#F4901E;}
</style>
<g id="BACKGROUND">
	<text transform="matrix(1 0 0 1 289.373 277.7264)" class="st0 st1 st2">Needs</text>
	<text transform="matrix(1 0 0 1 246.1441 298.5172)" class="st3 st4">Shopping Plateform</text>
</g>
<g id="OBJECTS">
	<g>
		<polygon class="st5" points="171.27,235.88 166.46,217.92 235.24,217.92 239.64,193.28 134.35,193.28 152.37,260.52 202.6,260.52 
			199.39,278.48 136.84,278.48 112.49,193.28 26.33,193.28 33.37,217.92 93.91,217.92 118.25,303.12 220.02,303.12 232.03,235.88 		
			"/>
		<circle class="st0" cx="139.26" cy="330.73" r="16.42"/>
		<circle class="st0" cx="195.13" cy="330.73" r="16.42"/>
		<polygon class="st0" points="86.87,193.5 112.49,193.5 143.88,303.34 118.25,303.34 		"/>
		<polygon class="st0" points="232.03,236.1 220.02,303.34 194.99,303.34 207,236.1 		"/>
		<polygon class="st0" points="159.38,193.5 178.7,260.74 152.37,260.74 134.35,193.5 		"/>
	</g>
</g>
</svg>
